<?xml version="1.0" encoding="UTF-8" standalone="no"?>
<!-- Created with Inkscape (http://www.inkscape.org/) -->

<svg
   version="1.1"
   id="svg1"
   width="886.46667"
   height="923.23999"
   viewBox="0 0 886.46667 923.23999"
   sodipodi:docname="clineo-logotipo icono-acromatico-negro.pdf"
   xmlns:inkscape="http://www.inkscape.org/namespaces/inkscape"
   xmlns:sodipodi="http://sodipodi.sourceforge.net/DTD/sodipodi-0.dtd"
   xmlns="http://www.w3.org/2000/svg"
   xmlns:svg="http://www.w3.org/2000/svg">
  <defs
     id="defs1" />
  <sodipodi:namedview
     id="namedview1"
     pagecolor="#ffffff"
     bordercolor="#000000"
     borderopacity="0.25"
     inkscape:showpageshadow="2"
     inkscape:pageopacity="0.0"
     inkscape:pagecheckerboard="0"
     inkscape:deskcolor="#d1d1d1">
    <inkscape:page
       x="0"
       y="0"
       inkscape:label="1"
       id="page1"
       width="886.46667"
       height="923.23999"
       margin="0"
       bleed="0" />
  </sodipodi:namedview>
  <g
     id="g1"
     inkscape:groupmode="layer"
     inkscape:label="1">
    <g
       id="group-R5">
      <path
         id="path2"
         d="M 3467.88,2924.78 V 1922.12 c -49.31,-7.9 -100.11,-12.15 -151.8,-12.15 -51.69,0 -102.19,3.95 -151.51,12.15 v 1006.61 c 103.09,-13.97 204.68,-14.89 303.31,-3.95"
         style="fill:#231f20;fill-opacity:1;fill-rule:nonzero;stroke:none"
         transform="matrix(0.13333333,0,0,-0.13333333,0,923.24)" />
      <path
         id="path3"
         d="M 3470.41,4957.54 V 3206.57 c -93.29,-14.59 -190.43,-15.48 -289.06,-0.89 -7.42,1.19 -14.55,2.38 -21.98,3.58 V 4963.5 c 90.31,13.1 184.48,13.4 280.14,-0.6 10.4,-1.49 20.79,-3.28 30.9,-5.36"
         style="fill:#231f20;fill-opacity:1;fill-rule:nonzero;stroke:none"
         transform="matrix(0.13333333,0,0,-0.13333333,0,923.24)" />
      <path
         id="path4"
         d="m 3467.28,6390.05 c -65.61,-10.55 -121.49,-13.42 -157.42,-12.23 -25.98,0.87 -81.13,4.7 -150.53,17.16 -84.29,15.13 -144.25,40.6 -216.75,74.9 105.12,-98.61 182.17,-236.82 214.75,-390.67 9.56,-44.26 3.5,-838.92 3.5,-838.92 49.91,6.1 100.72,9.16 152.42,9.16 51.7,0 102.81,-3.06 152.72,-9.16 0,0 0.67,776.91 5.45,808.66 13.19,87.6 37.98,167.8 88.06,253.72 41.74,71.63 90.12,126.98 125.31,158.51 -87.47,-47.03 -167.02,-63 -217.51,-71.13"
         style="fill:#231f20;fill-opacity:1;fill-rule:nonzero;stroke:none"
         transform="matrix(0.13333333,0,0,-0.13333333,0,923.24)" />
      <path
         id="path5"
         d="m 4536.29,2796.13 c 0,-643.45 -548.09,-1165.41 -1223.93,-1165.41 -675.84,0 -1223.64,521.96 -1223.64,1165.41 0,236.47 79.52,469.34 206.67,653.23 57.03,-82.29 126.34,-162.24 202.68,-228.19 -69.51,-124.18 -116.14,-274.42 -116.14,-425.04 0,-489.27 416.79,-886.16 930.43,-886.16 513.93,0 930.43,396.89 930.43,886.16 0,150.62 -39.51,292.62 -109.03,416.79 76.65,65.95 144.08,141.11 201.12,223.4 127.44,-183.88 201.41,-403.72 201.41,-640.19"
         style="fill:#231f20;fill-opacity:1;fill-rule:nonzero;stroke:none"
         transform="matrix(0.13333333,0,0,-0.13333333,0,923.24)" />
      <path
         id="path6"
         d="m 5284.48,5403.3 -449.17,-444.72 c 495.81,-405.21 809.81,-1006.48 809.81,-1677.56 0,-1175 -962.89,-2135.68 -2178.24,-2205.93 v 564.06 c -49.61,-5.85 -100.41,-8.78 -151.8,-8.78 -51.39,0 -101.9,2.93 -151.51,8.78 v -562.99 c -1206.95,78.54 -2160.48,1035.59 -2160.48,2204.86 0,662.47 306.28,1256.91 791.1,1662.11 l -440.86,451.25 C 741.367,4876.88 356.066,4121.73 356.066,3281.02 356.066,1719.91 1684.87,454.379 3324.11,454.379 c 1639.23,0 2968.33,1265.531 2968.33,2826.641 0,845.46 -390.05,1604.48 -1007.96,2122.28"
         style="fill:#231f20;fill-opacity:1;fill-rule:nonzero;stroke:none"
         transform="matrix(0.13333333,0,0,-0.13333333,0,923.24)" />
      <path
         id="path7"
         d="m 3478.87,5239.32 c -3.28,0.59 -6.27,0.89 -9.55,1.19 -105.94,14.89 -210.99,16.38 -312.46,5.66 -241.05,-24.98 -472.08,-122.92 -651.62,-266.39 -71.55,-5.27 -156.03,-54.37 -221.25,-135.89 -69.01,-86.33 -97.64,-185.78 -81.23,-258.08 -73.98,-113.63 -81.61,-239.75 -12.79,-294.82 10.21,-8.04 21.45,-14.28 33.8,-18.28 60.53,-21.58 143.45,3.41 216.7,63.95 15.15,12.36 29.95,26.36 44.15,41.81 70.81,6.67 153.73,55.27 217.95,135.42 84.5,105.96 108.35,231.28 63.37,302.03 113.94,74.9 250.25,126.86 390.92,147.03 90.72,13.11 185.33,13.4 281.42,-0.59 10.45,-1.49 20.89,-3.28 31.04,-5.36 493.91,-88.15 834.12,-533.67 763.99,-1009.26 -57.59,-391.02 -375.43,-682.86 -763.99,-741.83 -93.71,-14.59 -191.3,-15.49 -290.37,-0.89 -7.47,1.19 -14.63,2.38 -22.09,3.57 -303.51,51.52 -549.72,237.65 -680.43,482.74 1.23,-3.64 2.11,-7.42 3.04,-11.17 -22.66,50.38 -72.46,85.46 -130.41,85.46 -79.27,0 -143.52,-65.48 -143.52,-146.24 0,-32.78 10.71,-62.93 28.59,-87.32 180.31,-312.68 506.7,-545.82 903.93,-604 7.16,-0.9 14.32,-2.09 21.49,-2.68 103.55,-13.7 205.62,-14.6 304.7,-3.87 536.28,57.77 982.15,450.57 1060.63,983.35 94.31,638.49 -374.24,1235.88 -1046.01,1334.46"
         style="fill:#231f20;fill-opacity:1;fill-rule:nonzero;stroke:none"
         transform="matrix(0.13333333,0,0,-0.13333333,0,923.24)" />
    </g>
  </g>
</svg>
