<?xml version="1.0" encoding="UTF-8" standalone="no"?>
<!-- Created with Inkscape (http://www.inkscape.org/) -->

<svg
   version="1.1"
   id="svg1"
   width="842.58667"
   height="850.32001"
   viewBox="0 0 842.58667 850.32001"
   sodipodi:docname="clineo-logotipo-icono-oficial.pdf"
   xmlns:inkscape="http://www.inkscape.org/namespaces/inkscape"
   xmlns:sodipodi="http://sodipodi.sourceforge.net/DTD/sodipodi-0.dtd"
   xmlns="http://www.w3.org/2000/svg"
   xmlns:svg="http://www.w3.org/2000/svg">
  <defs
     id="defs1" />
  <sodipodi:namedview
     id="namedview1"
     pagecolor="#ffffff"
     bordercolor="#000000"
     borderopacity="0.25"
     inkscape:showpageshadow="2"
     inkscape:pageopacity="0.0"
     inkscape:pagecheckerboard="0"
     inkscape:deskcolor="#d1d1d1">
    <inkscape:page
       x="0"
       y="0"
       inkscape:label="1"
       id="page1"
       width="842.58667"
       height="850.32001"
       margin="0"
       bleed="0" />
  </sodipodi:namedview>
  <g
     id="g1"
     inkscape:groupmode="layer"
     inkscape:label="1">
    <g
       id="group-R5">
      <path
         id="path2"
         d="M 13.746656,9.453125e-4 V -2.5185859 H 4.195875 V -19.592805 H 1.3950938 v 17.5195316 c 0,1.37109371 0.703125,2.0742187125 2.0742187,2.0742187125 z M 15.899977,-4.0068672 c 0.398437,0.9257813 0.960937,1.7109375 1.652343,2.4140625 0.703125,0.70312501 1.511719,1.23046876 2.4375,1.61718751 0.925782,0.3984375 1.933594,0.59765625 3,0.59765625 1.066407,0 2.074219,-0.19921875 2.988282,-0.59765625 0.925781,-0.38671875 1.769531,-0.9140625 2.472656,-1.61718751 0.691406,-0.703125 1.230469,-1.4882812 1.652344,-2.4140625 0.386718,-0.9140625 0.585937,-1.8984375 0.585937,-2.9296875 0,-1.0429687 -0.199219,-2.015625 -0.585937,-2.9414062 -0.421875,-0.9257811 -0.960938,-1.7109371 -1.652344,-2.4140621 -0.703125,-0.691407 -1.546875,-1.230469 -2.472656,-1.617188 -0.914063,-0.398437 -1.921875,-0.597656 -2.988282,-0.597656 -1.066406,0 -2.074218,0.199219 -3,0.597656 -0.925781,0.386719 -1.734375,0.925781 -2.4375,1.617188 -0.691406,0.703125 -1.253906,1.488281 -1.652343,2.4140621 -0.410157,0.9257812 -0.609375,1.8984375 -0.609375,2.9414062 0,1.03125 0.199218,2.015625 0.609375,2.9296875 z m 2.4375,-4.921875 c 0.257812,-0.6210937 0.621093,-1.1718748 1.089843,-1.6523438 0.457032,-0.480469 0.984375,-0.84375 1.628907,-1.125 0.609375,-0.269531 1.289062,-0.410156 1.992187,-0.410156 0.691406,0 1.335938,0.140625 1.957031,0.410156 0.585938,0.28125 1.113282,0.644531 1.570313,1.125 0.445312,0.480469 0.808594,1.0312501 1.054687,1.6523438 0.257813,0.609375 0.398438,1.2539063 0.398438,1.9570313 0,0.703125 -0.140625,1.3476562 -0.398438,1.9921875 -0.246093,0.6445312 -0.609375,1.171875 -1.054687,1.6523437 -0.457031,0.46875 -0.984375,0.8671875 -1.570313,1.1484375 -0.621093,0.28125 -1.265625,0.4101563 -1.957031,0.4101563 -0.703125,0 -1.382812,-0.1289063 -1.992187,-0.4101563 -0.644532,-0.28125 -1.171875,-0.6796875 -1.628907,-1.1484375 -0.46875,-0.4804687 -0.832031,-1.0078125 -1.089843,-1.6523437 -0.246094,-0.6445313 -0.386719,-1.2890625 -0.386719,-1.9921875 0,-0.703125 0.140625,-1.3476563 0.386719,-1.9570313 z m 26.068359,8.95312501 c 0,0.8671875 -0.140625,1.62890629 -0.398438,2.27343749 -0.269531,0.6445313 -0.632812,1.171875 -1.089843,1.59375 -0.445313,0.421875 -0.949219,0.703125 -1.535157,0.9023438 -0.585937,0.1875 -1.207031,0.3046875 -1.816406,0.3046875 -0.960937,0 -1.875,-0.1992188 -2.742187,-0.6210938 C 35.921461,4.0907891 35.077711,3.5517266 34.304273,2.9071953 l -1.546875,1.828125 c 1.007813,0.890625 2.132813,1.5703125 3.328125,2.0390625 1.207032,0.4804688 2.414063,0.703125 3.585938,0.703125 0.925781,0 1.816406,-0.140625 2.71875,-0.4453125 0.867187,-0.3164062 1.652344,-0.7617187 2.355469,-1.40625 0.691406,-0.609375 1.253906,-1.3945312 1.675781,-2.34375 0.421875,-0.9609375 0.644531,-2.109375 0.644531,-3.42187499 V -14.002961 h -2.660156 v 2.132813 c -0.644531,-0.808594 -1.429688,-1.453125 -2.355469,-1.933594 -0.925781,-0.46875 -1.898437,-0.703125 -2.964844,-0.703125 -0.984375,0 -1.875,0.199219 -2.71875,0.597656 -0.867187,0.386719 -1.59375,0.925781 -2.238281,1.617188 -0.644531,0.703125 -1.113281,1.488281 -1.476562,2.3789058 -0.363282,0.9257813 -0.5625,1.9101563 -0.5625,2.9414063 0,1.0429687 0.199218,1.9921875 0.5625,2.9179687 0.363281,0.9140625 0.832031,1.6992188 1.476562,2.4023438 0.644531,0.70312496 1.371094,1.23046871 2.238281,1.62890621 0.84375,0.38671875 1.734375,0.5859375 2.71875,0.5859375 1.066407,0 2.039063,-0.22265625 2.964844,-0.703125 0.925781,-0.48046875 1.710938,-1.12500001 2.355469,-1.93359371 z M 35.136305,-8.9521797 c 0.257812,-0.6210937 0.585937,-1.1484373 1.007812,-1.6289063 0.421875,-0.480469 0.925781,-0.84375 1.511719,-1.125 0.585937,-0.269531 1.207031,-0.410156 1.851562,-0.410156 0.644532,0 1.253907,0.140625 1.851563,0.410156 0.585937,0.28125 1.089844,0.644531 1.511719,1.125 0.410156,0.480469 0.773437,1.0078126 1.03125,1.6289063 0.246093,0.6328125 0.363281,1.2773438 0.363281,1.9804688 0,0.703125 -0.117188,1.3476562 -0.363281,1.9570312 -0.257813,0.6445313 -0.621094,1.1835938 -1.03125,1.6523438 -0.421875,0.4804687 -0.925782,0.84375 -1.511719,1.125 -0.597656,0.28125 -1.207031,0.421875 -1.851563,0.421875 -0.644531,0 -1.265625,-0.140625 -1.851562,-0.421875 -0.585938,-0.28125 -1.089844,-0.6445313 -1.511719,-1.125 -0.421875,-0.46875 -0.75,-1.0078125 -1.007812,-1.6523438 -0.246094,-0.609375 -0.386719,-1.2539062 -0.386719,-1.9570312 0,-0.703125 0.140625,-1.3476563 0.386719,-1.9804688 z m 14.364257,4.9453125 c 0.398438,0.9257813 0.960938,1.7109375 1.652344,2.4140625 0.703125,0.70312501 1.511719,1.23046876 2.4375,1.61718751 0.925781,0.3984375 1.933594,0.59765625 3,0.59765625 1.066406,0 2.074219,-0.19921875 2.988281,-0.59765625 0.925782,-0.38671875 1.769532,-0.9140625 2.472657,-1.61718751 0.691406,-0.703125 1.230468,-1.4882812 1.652343,-2.4140625 0.386719,-0.9140625 0.585938,-1.8984375 0.585938,-2.9296875 0,-1.0429687 -0.199219,-2.015625 -0.585938,-2.9414062 -0.421875,-0.9257811 -0.960937,-1.7109371 -1.652343,-2.4140621 -0.703125,-0.691407 -1.546875,-1.230469 -2.472657,-1.617188 -0.914062,-0.398437 -1.921875,-0.597656 -2.988281,-0.597656 -1.066406,0 -2.074219,0.199219 -3,0.597656 -0.925781,0.386719 -1.734375,0.925781 -2.4375,1.617188 -0.691406,0.703125 -1.253906,1.488281 -1.652344,2.4140621 -0.410156,0.9257812 -0.609375,1.8984375 -0.609375,2.9414062 0,1.03125 0.199219,2.015625 0.609375,2.9296875 z m 2.4375,-4.921875 c 0.257813,-0.6210937 0.621094,-1.1718748 1.089844,-1.6523438 0.457031,-0.480469 0.984375,-0.84375 1.628906,-1.125 0.609375,-0.269531 1.289063,-0.410156 1.992188,-0.410156 0.691406,0 1.335937,0.140625 1.957031,0.410156 0.585938,0.28125 1.113281,0.644531 1.570313,1.125 0.445312,0.480469 0.808593,1.0312501 1.054687,1.6523438 0.257813,0.609375 0.398438,1.2539063 0.398438,1.9570313 0,0.703125 -0.140625,1.3476562 -0.398438,1.9921875 -0.246094,0.6445312 -0.609375,1.171875 -1.054687,1.6523437 -0.457032,0.46875 -0.984375,0.8671875 -1.570313,1.1484375 -0.621094,0.28125 -1.265625,0.4101563 -1.957031,0.4101563 -0.703125,0 -1.382813,-0.1289063 -1.992188,-0.4101563 -0.644531,-0.28125 -1.171875,-0.6796875 -1.628906,-1.1484375 -0.46875,-0.4804687 -0.832031,-1.0078125 -1.089844,-1.6523437 -0.246093,-0.6445313 -0.386718,-1.2890625 -0.386718,-1.9921875 0,-0.703125 0.140625,-1.3476563 0.386718,-1.9570313 z M 68.130445,9.453125e-4 h 2.648438 V -11.752961 h 2.695312 v -2.25 h -2.695312 v -3.855469 h -2.648438 v 3.855469 h -2.71875 v 2.25 h 2.71875 z M 75.519117,-16.967805 c 0.304688,0.339844 0.691406,0.503907 1.171875,0.503907 0.480469,0 0.867188,-0.164063 1.207031,-0.503907 0.304688,-0.304687 0.46875,-0.691406 0.46875,-1.171875 0,-0.480468 -0.164062,-0.867187 -0.46875,-1.207031 -0.339843,-0.304687 -0.726562,-0.46875 -1.207031,-0.46875 -0.480469,0 -0.867187,0.164063 -1.171875,0.46875 -0.339844,0.339844 -0.503906,0.726563 -0.503906,1.207031 0,0.480469 0.164062,0.867188 0.503906,1.171875 z M 75.378492,9.453125e-4 h 2.660156 V -14.002961 H 75.378492 Z M 94.890211,-9.8779609 c -0.363281,-0.9257811 -0.867188,-1.7109371 -1.511719,-2.4140621 -0.644531,-0.691407 -1.40625,-1.230469 -2.273437,-1.617188 -0.867188,-0.398437 -1.816407,-0.597656 -2.800782,-0.597656 -0.972656,0 -1.898437,0.199219 -2.765625,0.597656 -0.867187,0.386719 -1.628906,0.925781 -2.273437,1.617188 v -1.710938 H 80.616773 V 5.6259453 h 2.648438 v -7.21875 c 0.644531,0.70312501 1.40625,1.23046876 2.273437,1.61718751 0.867188,0.3984375 1.792969,0.59765625 2.765625,0.59765625 0.984375,0 1.933594,-0.19921875 2.800782,-0.59765625 0.867187,-0.38671875 1.628906,-0.9140625 2.273437,-1.61718751 0.644531,-0.703125 1.148438,-1.4882812 1.511719,-2.4140625 0.363281,-0.9140625 0.5625,-1.8984375 0.5625,-2.9296875 0,-1.0429687 -0.199219,-2.015625 -0.5625,-2.9414062 z m -2.460938,4.8984375 c -0.257812,0.6445312 -0.621093,1.171875 -1.042968,1.6523437 -0.421875,0.46875 -0.925782,0.8671875 -1.511719,1.1484375 -0.585938,0.28125 -1.230469,0.4101563 -1.898438,0.4101563 -0.644531,0 -1.230468,-0.1289063 -1.816406,-0.4101563 -0.597656,-0.28125 -1.066406,-0.6796875 -1.488281,-1.1484375 -0.421875,-0.4804687 -0.761719,-1.0078125 -1.007813,-1.6523437 -0.257812,-0.6445313 -0.398437,-1.2890625 -0.398437,-1.9921875 0,-0.703125 0.140625,-1.3476563 0.398437,-1.9570313 0.246094,-0.6210937 0.585938,-1.1718748 1.007813,-1.6523438 0.421875,-0.480469 0.890625,-0.84375 1.488281,-1.125 0.585938,-0.269531 1.171875,-0.410156 1.816406,-0.410156 0.667969,0 1.3125,0.140625 1.898438,0.410156 0.585937,0.28125 1.089844,0.644531 1.511719,1.125 0.421875,0.480469 0.785156,1.0312501 1.042968,1.6523438 0.246094,0.609375 0.363282,1.2539063 0.363282,1.9570313 0,0.703125 -0.117188,1.3476562 -0.363282,1.9921875 z m 4.754883,0.9726562 c 0.398438,0.9257813 0.960938,1.7109375 1.652344,2.4140625 0.703125,0.70312501 1.51172,1.23046876 2.4375,1.61718751 0.92578,0.3984375 1.93359,0.59765625 3,0.59765625 1.06641,0 2.07422,-0.19921875 2.98828,-0.59765625 0.92578,-0.38671875 1.76953,-0.9140625 2.47266,-1.61718751 0.6914,-0.703125 1.23047,-1.4882812 1.65234,-2.4140625 0.38672,-0.9140625 0.58594,-1.8984375 0.58594,-2.9296875 0,-1.0429687 -0.19922,-2.015625 -0.58594,-2.9414062 -0.42187,-0.9257811 -0.96094,-1.7109371 -1.65234,-2.4140621 -0.70313,-0.691407 -1.54688,-1.230469 -2.47266,-1.617188 -0.91406,-0.398437 -1.92187,-0.597656 -2.98828,-0.597656 -1.06641,0 -2.07422,0.199219 -3,0.597656 -0.92578,0.386719 -1.734375,0.925781 -2.4375,1.617188 -0.691406,0.703125 -1.253906,1.488281 -1.652344,2.4140621 -0.410156,0.9257812 -0.609375,1.8984375 -0.609375,2.9414062 0,1.03125 0.199219,2.015625 0.609375,2.9296875 z m 2.4375,-4.921875 c 0.257813,-0.6210937 0.621094,-1.1718748 1.089844,-1.6523438 0.45703,-0.480469 0.98438,-0.84375 1.62891,-1.125 0.60937,-0.269531 1.28906,-0.410156 1.99218,-0.410156 0.69141,0 1.33594,0.140625 1.95704,0.410156 0.58593,0.28125 1.11328,0.644531 1.57031,1.125 0.44531,0.480469 0.80859,1.0312501 1.05469,1.6523438 0.25781,0.609375 0.39843,1.2539063 0.39843,1.9570313 0,0.703125 -0.14062,1.3476562 -0.39843,1.9921875 -0.2461,0.6445312 -0.60938,1.171875 -1.05469,1.6523437 -0.45703,0.46875 -0.98438,0.8671875 -1.57031,1.1484375 -0.6211,0.28125 -1.26563,0.4101563 -1.95704,0.4101563 -0.70312,0 -1.38281,-0.1289063 -1.99218,-0.4101563 -0.64453,-0.28125 -1.17188,-0.6796875 -1.62891,-1.1484375 -0.46875,-0.4804687 -0.832031,-1.0078125 -1.089844,-1.6523437 -0.246094,-0.6445313 -0.386719,-1.2890625 -0.386719,-1.9921875 0,-0.703125 0.140625,-1.3476563 0.386719,-1.9570313 z M 119.8072,-19.592805 V 9.453125e-4 h 2.80078 V -19.592805 Z m 8.23535,10.6406253 c 0.25782,-0.6210937 0.58594,-1.1484373 1.04297,-1.6289063 0.44532,-0.480469 0.97266,-0.84375 1.5586,-1.125 0.58593,-0.269531 1.23047,-0.410156 1.91015,-0.410156 0.69141,0 1.3711,0.140625 1.95703,0.445312 0.58594,0.304688 1.14844,0.703125 1.62891,1.171875 l 1.92188,-1.570312 c -0.69141,-0.75 -1.53516,-1.371094 -2.46094,-1.792969 -0.94922,-0.410156 -1.98047,-0.644531 -3.08203,-0.644531 -1.03125,0 -2.01563,0.199219 -2.92969,0.597656 -0.92578,0.386719 -1.71094,0.925781 -2.39063,1.617188 -0.6914,0.703125 -1.23046,1.488281 -1.61718,2.3789058 -0.39844,0.9257813 -0.58594,1.9101563 -0.58594,2.9414063 0,1.0429687 0.1875,2.015625 0.58594,2.9414062 0.38672,0.9257813 0.92578,1.7109375 1.61718,2.4023438 0.67969,0.70312496 1.46485,1.24218746 2.39063,1.6289062125 0.91406,0.3867187475 1.89844,0.5859374975 2.92969,0.5859374975 1.10156,0 2.13281,-0.22265625 3.08203,-0.64453125 0.92578,-0.421875 1.76953,-1.03124996 2.46094,-1.79296876 l -1.92188,-1.5585937 c -0.48047,0.46875 -1.04297,0.8671875 -1.62891,1.171875 -0.58593,0.3046875 -1.26562,0.4453125 -1.95703,0.4453125 -0.67968,0 -1.32422,-0.140625 -1.91015,-0.421875 -0.58594,-0.28125 -1.11328,-0.6445313 -1.5586,-1.1132813 -0.45703,-0.4804687 -0.78515,-1.0078125 -1.04297,-1.6523437 -0.24609,-0.6445313 -0.38671,-1.2890625 -0.38671,-1.9921875 0,-0.703125 0.14062,-1.3476563 0.38671,-1.9804688 z m 11.47852,4.9453125 c 0.39844,0.9257813 0.96094,1.7109375 1.65234,2.4140625 0.70313,0.70312501 1.51172,1.23046876 2.4375,1.61718751 0.92579,0.3984375 1.9336,0.59765625 3,0.59765625 1.06641,0 2.07422,-0.19921875 2.98829,-0.59765625 0.92578,-0.38671875 1.76953,-0.9140625 2.47265,-1.61718751 0.69141,-0.703125 1.23047,-1.4882812 1.65235,-2.4140625 0.38671,-0.9140625 0.58593,-1.8984375 0.58593,-2.9296875 0,-1.0429687 -0.19922,-2.015625 -0.58593,-2.9414062 -0.42188,-0.9257811 -0.96094,-1.7109371 -1.65235,-2.4140621 -0.70312,-0.691407 -1.54687,-1.230469 -2.47265,-1.617188 -0.91407,-0.398437 -1.92188,-0.597656 -2.98829,-0.597656 -1.0664,0 -2.07421,0.199219 -3,0.597656 -0.92578,0.386719 -1.73437,0.925781 -2.4375,1.617188 -0.6914,0.703125 -1.2539,1.488281 -1.65234,2.4140621 -0.41016,0.9257812 -0.60937,1.8984375 -0.60937,2.9414062 0,1.03125 0.19921,2.015625 0.60937,2.9296875 z m 2.4375,-4.921875 c 0.25781,-0.6210937 0.62109,-1.1718748 1.08984,-1.6523438 0.45704,-0.480469 0.98438,-0.84375 1.62891,-1.125 0.60938,-0.269531 1.28906,-0.410156 1.99219,-0.410156 0.6914,0 1.33594,0.140625 1.95703,0.410156 0.58594,0.28125 1.11328,0.644531 1.57031,1.125 0.44531,0.480469 0.8086,1.0312501 1.05469,1.6523438 0.25781,0.609375 0.39844,1.2539063 0.39844,1.9570313 0,0.703125 -0.14063,1.3476562 -0.39844,1.9921875 -0.24609,0.6445312 -0.60938,1.171875 -1.05469,1.6523437 -0.45703,0.46875 -0.98437,0.8671875 -1.57031,1.1484375 -0.62109,0.28125 -1.26563,0.4101563 -1.95703,0.4101563 -0.70313,0 -1.38281,-0.1289063 -1.99219,-0.4101563 -0.64453,-0.28125 -1.17187,-0.6796875 -1.62891,-1.1484375 -0.46875,-0.4804687 -0.83203,-1.0078125 -1.08984,-1.6523437 -0.24609,-0.6445313 -0.38672,-1.2890625 -0.38672,-1.9921875 0,-0.703125 0.14063,-1.3476563 0.38672,-1.9570313 z m 24.27539,8.9296875125 h 2.66016 V -8.3428047 c 0,-0.9257812 -0.14063,-1.7343753 -0.44532,-2.4960933 -0.3164,-0.75 -0.72656,-1.394532 -1.26562,-1.921875 -0.52734,-0.539063 -1.14844,-0.925782 -1.85156,-1.242188 -0.69141,-0.304687 -1.45313,-0.445312 -2.23828,-0.445312 -0.89063,0 -1.69922,0.199218 -2.40235,0.5625 -0.70312,0.386718 -1.34765,0.925781 -1.91015,1.570312 v -1.6875 H 156.1324 V 9.453125e-4 h 2.64844 V -8.1435859 c 0,-0.5390625 0.11718,-1.0664063 0.3164,-1.546875 0.1875,-0.4687501 0.44531,-0.8671871 0.8086,-1.2304691 0.33984,-0.363281 0.72656,-0.644531 1.20703,-0.832031 0.46875,-0.199219 0.97265,-0.316406 1.51172,-0.316406 0.5039,0 0.97265,0.09375 1.42968,0.257812 0.41016,0.199219 0.8086,0.445313 1.14844,0.785157 0.30469,0.328125 0.55078,0.75 0.75,1.2304683 0.19922,0.46875 0.28125,1.03125 0.28125,1.6523438 z M 171.32869,-4.0068672 c 0.39843,0.9257813 0.96093,1.7109375 1.65234,2.4140625 0.70313,0.70312501 1.51172,1.23046876 2.4375,1.61718751 0.92578,0.3984375 1.93359,0.59765625 3,0.59765625 1.06641,0 2.07422,-0.19921875 2.98828,-0.59765625 0.92578,-0.38671875 1.76953,-0.9140625 2.47266,-1.61718751 0.6914,-0.703125 1.23047,-1.4882812 1.65234,-2.4140625 0.38672,-0.9140625 0.58594,-1.8984375 0.58594,-2.9296875 0,-1.0429687 -0.19922,-2.015625 -0.58594,-2.9414062 -0.42187,-0.9257811 -0.96094,-1.7109371 -1.65234,-2.4140621 -0.70313,-0.691407 -1.54688,-1.230469 -2.47266,-1.617188 -0.91406,-0.398437 -1.92187,-0.597656 -2.98828,-0.597656 -1.06641,0 -2.07422,0.199219 -3,0.597656 -0.92578,0.386719 -1.73437,0.925781 -2.4375,1.617188 -0.69141,0.703125 -1.25391,1.488281 -1.65234,2.4140621 -0.41016,0.9257812 -0.60938,1.8984375 -0.60938,2.9414062 0,1.03125 0.19922,2.015625 0.60938,2.9296875 z m 2.4375,-4.921875 c 0.25781,-0.6210937 0.62109,-1.1718748 1.08984,-1.6523438 0.45703,-0.480469 0.98438,-0.84375 1.62891,-1.125 0.60937,-0.269531 1.28906,-0.410156 1.99218,-0.410156 0.69141,0 1.33594,0.140625 1.95704,0.410156 0.58593,0.28125 1.11328,0.644531 1.57031,1.125 0.44531,0.480469 0.80859,1.0312501 1.05469,1.6523438 0.25781,0.609375 0.39843,1.2539063 0.39843,1.9570313 0,0.703125 -0.14062,1.3476562 -0.39843,1.9921875 -0.2461,0.6445312 -0.60938,1.171875 -1.05469,1.6523437 -0.45703,0.46875 -0.98438,0.8671875 -1.57031,1.1484375 -0.6211,0.28125 -1.26563,0.4101563 -1.95704,0.4101563 -0.70312,0 -1.38281,-0.1289063 -1.99218,-0.4101563 -0.64453,-0.28125 -1.17188,-0.6796875 -1.62891,-1.1484375 -0.46875,-0.4804687 -0.83203,-1.0078125 -1.08984,-1.6523437 -0.2461,-0.6445313 -0.38672,-1.2890625 -0.38672,-1.9921875 0,-0.703125 0.14062,-1.3476563 0.38672,-1.9570313 z m 0,0"
         style="fill:#231f20;fill-opacity:1;fill-rule:nonzero;stroke:none"
         aria-label="Logotipo Icono"
         transform="matrix(1.3333333,0,0,1.3333333,566.468,51.557333)" />
      <path
         id="path3"
         d="M 3281.91,1304.43 V 176.199 H 2978.6 V 1304.43 c 49.61,-5.86 100.11,-8.79 151.5,-8.79 51.4,0 102.2,2.93 151.81,8.79"
         style="fill:#7d87a1;fill-opacity:1;fill-rule:nonzero;stroke:none"
         transform="matrix(0.13333333,0,0,-0.13333333,0,850.32)" />
      <path
         id="path4"
         d="M 3282.91,2590.05 V 1587.4 c -49.32,-7.9 -100.11,-12.15 -151.81,-12.15 -51.69,0 -102.19,3.94 -151.5,12.15 V 2594 c 103.08,-13.97 204.68,-14.88 303.31,-3.95"
         style="fill:#7d87a1;fill-opacity:1;fill-rule:nonzero;stroke:none"
         transform="matrix(0.13333333,0,0,-0.13333333,0,850.32)" />
      <path
         id="path5"
         d="M 3285.43,4622.82 V 2871.85 c -93.28,-14.59 -190.42,-15.48 -289.05,-0.89 -7.43,1.19 -14.56,2.38 -21.98,3.57 v 1754.24 c 90.3,13.1 184.48,13.4 280.13,-0.59 10.4,-1.49 20.8,-3.28 30.9,-5.36"
         style="fill:#7d87a1;fill-opacity:1;fill-rule:nonzero;stroke:none"
         transform="matrix(0.13333333,0,0,-0.13333333,0,850.32)" />
      <path
         id="path6"
         d="m 2517.6,4179.17 c -64.22,-80.15 -147.14,-128.75 -217.95,-135.43 -14.2,-15.45 -29.01,-29.44 -44.15,-41.81 -73.26,-60.54 -156.17,-85.53 -216.71,-63.95 -12.34,4.01 -23.58,10.25 -33.79,18.28 -68.82,55.08 -61.19,181.19 12.79,294.82 -16.41,72.3 12.22,171.76 81.23,258.08 87.35,109.2 209.3,160.31 288.41,125.69 9.26,-3.84 17.8,-9.1 25.69,-15.34 25.19,-20.14 39.81,-49.76 45.14,-84.68 37.27,3.75 71.39,-3.9 97.73,-24.94 3.43,-2.91 6.87,-5.82 9.96,-9.32 64.38,-65.11 44.44,-205.04 -48.35,-321.4"
         style="fill:#4cb7d7;fill-opacity:1;fill-rule:nonzero;stroke:none"
         transform="matrix(0.13333333,0,0,-0.13333333,0,850.32)" />
      <path
         id="path7"
         d="m 3282.31,6055.33 c -65.61,-10.56 -121.49,-13.42 -157.43,-12.23 -25.97,0.86 -81.12,4.69 -150.52,17.15 -84.3,15.13 -144.25,40.61 -216.76,74.91 105.12,-98.62 182.17,-236.82 214.75,-390.68 9.57,-44.25 3.5,-838.91 3.5,-838.91 49.91,6.1 100.72,9.15 152.42,9.15 51.71,0 102.82,-3.05 152.73,-9.15 0,0 0.67,776.9 5.45,808.65 13.19,87.61 37.98,167.8 88.05,253.72 41.75,71.63 90.13,126.98 125.31,158.52 -87.46,-47.03 -167.02,-63 -217.5,-71.13"
         style="fill:#7d87a1;fill-opacity:1;fill-rule:nonzero;stroke:none"
         transform="matrix(0.13333333,0,0,-0.13333333,0,850.32)" />
      <path
         id="path8"
         d="m 4339.91,3570.13 c -78.49,-532.77 -524.35,-925.57 -1060.64,-983.35 -99.08,-10.72 -201.14,-9.83 -304.7,3.87 -7.16,0.6 -14.32,1.79 -21.48,2.68 -400.5,58.67 -729.08,295.13 -908.44,611.69 21.79,-21.74 50.44,-37.22 83.56,-41.99 81.18,-11.91 157.28,44.38 169.22,125.68 3.28,23.52 1.19,46.75 -5.97,67.9 130.71,-245.1 376.92,-431.23 680.43,-482.75 7.46,-1.19 14.62,-2.38 22.08,-3.57 99.08,-14.59 196.67,-13.7 290.38,0.89 388.56,58.97 706.39,350.82 763.99,741.84 70.13,475.59 -270.08,921.11 -763.99,1009.26 -10.15,2.08 -20.6,3.87 -31.04,5.36 -96.1,13.99 -190.7,13.69 -281.42,0.59 -143.25,-20.55 -282.03,-73.99 -397.23,-151.12 -4.47,4.76 -4.17,9.66 -8.94,13.54 -37.31,26.8 -84.46,34.84 -134.89,27.39 -9.85,47.06 -31.64,86.37 -67.45,112.28 -11.34,7.74 -31.14,9.3 -43.98,14.07 179.66,143.84 411.05,242.04 652.49,267.05 101.46,10.72 206.51,9.24 312.46,-5.66 3.28,-0.29 6.26,-0.59 9.55,-1.19 671.77,-98.57 1140.31,-695.97 1046.01,-1334.46"
         style="fill:#4cb7d7;fill-opacity:1;fill-rule:nonzero;stroke:none"
         transform="matrix(0.13333333,0,0,-0.13333333,0,850.32)" />
      <path
         id="path9"
         d="m 4351.32,2461.41 c 0,-643.46 -548.1,-1165.41 -1223.93,-1165.41 -675.84,0 -1223.64,521.95 -1223.64,1165.41 0,236.47 79.51,469.33 206.66,653.22 57.04,-82.29 126.35,-162.23 202.69,-228.18 -69.51,-124.18 -116.14,-274.42 -116.14,-425.04 0,-489.28 416.79,-886.16 930.43,-886.16 513.93,0 930.42,396.88 930.42,886.16 0,150.62 -39.51,292.61 -109.02,416.79 76.64,65.95 144.08,141.11 201.11,223.4 127.45,-183.89 201.42,-403.72 201.42,-640.19"
         style="fill:#4cb7d7;fill-opacity:1;fill-rule:nonzero;stroke:none"
         transform="matrix(0.13333333,0,0,-0.13333333,0,850.32)" />
      <path
         id="path10"
         d="m 6107.47,2946.29 c 0,-1561.11 -1329.1,-2826.63 -2968.34,-2826.63 -1639.24,0 -2968.036,1265.52 -2968.036,2826.63 0,840.72 385.301,1595.87 997.266,2113.37 l 440.85,-451.25 C 1124.39,4203.2 818.113,3608.76 818.113,2946.29 818.113,1725.63 1857.27,736.082 3139.13,736.082 c 1281.87,0 2321.02,989.548 2321.02,2210.208 0,671.09 -314,1272.36 -809.82,1677.56 l 449.18,444.72 c 617.9,-517.79 1007.96,-1276.81 1007.96,-2122.28"
         style="fill:#7d87a1;fill-opacity:1;fill-rule:nonzero;stroke:none"
         transform="matrix(0.13333333,0,0,-0.13333333,0,850.32)" />
      <path
         id="path11"
         d="m 2307.6,3284.66 c 0,-80.77 -64.26,-146.24 -143.52,-146.24 -79.26,0 -143.51,65.47 -143.51,146.24 0,80.76 64.25,146.23 143.51,146.23 79.26,0 143.52,-65.47 143.52,-146.23"
         style="fill:#4cb7d7;fill-opacity:1;fill-rule:nonzero;stroke:none"
         transform="matrix(0.13333333,0,0,-0.13333333,0,850.32)" />
    </g>
  </g>
</svg>
