<?xml version="1.0" encoding="UTF-8" standalone="no"?>
<!-- Created with Inkscape (http://www.inkscape.org/) -->

<svg
   version="1.1"
   id="svg1"
   width="951.82666"
   height="919.14667"
   viewBox="0 0 951.82666 919.14667"
   sodipodi:docname="clineo-logotipo-vertical-acromatico-negro.pdf"
   xmlns:inkscape="http://www.inkscape.org/namespaces/inkscape"
   xmlns:sodipodi="http://sodipodi.sourceforge.net/DTD/sodipodi-0.dtd"
   xmlns="http://www.w3.org/2000/svg"
   xmlns:svg="http://www.w3.org/2000/svg">
  <defs
     id="defs1" />
  <sodipodi:namedview
     id="namedview1"
     pagecolor="#ffffff"
     bordercolor="#000000"
     borderopacity="0.25"
     inkscape:showpageshadow="2"
     inkscape:pageopacity="0.0"
     inkscape:pagecheckerboard="0"
     inkscape:deskcolor="#d1d1d1">
    <inkscape:page
       x="0"
       y="0"
       inkscape:label="1"
       id="page1"
       width="951.82666"
       height="919.14667"
       margin="0"
       bleed="0" />
  </sodipodi:namedview>
  <g
     id="g1"
     inkscape:groupmode="layer"
     inkscape:label="1">
    <g
       id="group-R5">
      <path
         id="path2"
         d="m 1201.31,926.629 c 0,69.801 13.09,135.501 39.26,197.091 26.2,61.54 62.03,115.52 107.52,161.93 45.48,46.38 98.29,82.91 158.49,109.57 60.17,26.64 124.73,39.96 193.65,39.96 78.09,0 150.44,-16.52 217.07,-49.61 66.6,-33.07 123.33,-77.65 170.21,-133.69 l -101.99,-75.79 c -34.92,41.33 -76.48,74.19 -124.73,98.53 -48.24,24.35 -100.41,36.53 -156.43,36.53 -49.61,0 -96.72,-10.12 -141.27,-30.33 -44.58,-20.21 -83.38,-47.78 -116.47,-82.68 -33.07,-34.93 -59.25,-75.58 -78.56,-121.97 -19.28,-46.41 -28.93,-96.279 -28.93,-149.541 0,-53.297 9.65,-103.168 28.93,-149.539 19.31,-46.41 45.49,-87.059 78.56,-121.988 33.09,-34.922 71.89,-62.493 116.47,-82.68 44.55,-20.242 91.66,-30.332 141.27,-30.332 56.02,0 108.19,12.18 156.43,36.531 48.25,24.34 89.81,57.199 124.73,98.551 l 101.99,-75.813 c -46.88,-56.07 -103.61,-100.621 -170.21,-133.687 -66.63,-33.07 -138.98,-49.613 -217.07,-49.613 -68.92,0 -133.48,13.32 -193.65,39.961 -60.2,26.64 -113.01,63.16 -158.49,109.57 -45.49,46.39 -81.32,100.371 -107.52,161.961 -26.17,61.539 -39.26,127.23 -39.26,197.078"
         style="fill:#231f20;fill-opacity:1;fill-rule:nonzero;stroke:none"
         transform="matrix(0.13333333,0,0,-0.13333333,0,919.14667)" />
      <path
         id="path3"
         d="m 2288.73,442.859 c -68.02,0 -101.99,33.981 -101.99,101.993 v 862.758 h 137.82 V 566.902 h 469.96 V 442.859 h -505.79"
         style="fill:#231f20;fill-opacity:1;fill-rule:nonzero;stroke:none"
         transform="matrix(0.13333333,0,0,-0.13333333,0,919.14667)" />
      <path
         id="path4"
         d="M 3063.26,1407.61 V 442.859 h -137.82 v 964.751 h 137.82"
         style="fill:#231f20;fill-opacity:1;fill-rule:nonzero;stroke:none"
         transform="matrix(0.13333333,0,0,-0.13333333,0,919.14667)" />
      <path
         id="path5"
         d="m 3228.62,1334.59 c 0,22.95 8.26,42.72 24.81,59.24 16.52,16.55 36.27,24.83 59.25,24.83 13.78,0 27.56,-3.69 41.35,-11.05 13.78,-7.35 27.1,-20.21 39.98,-38.59 l 508.55,-698.739 v 737.329 h 137.82 v -891.7 c 0,-22.969 -8.26,-42.719 -24.81,-59.262 -16.52,-16.546 -36.29,-24.808 -59.26,-24.808 -14.69,0 -28.71,3.691 -42.03,11.019 -13.32,7.34 -26.43,20.192 -39.28,38.59 L 3366.44,1180.22 V 442.859 h -137.82 v 891.731"
         style="fill:#231f20;fill-opacity:1;fill-rule:nonzero;stroke:none"
         transform="matrix(0.13333333,0,0,-0.13333333,0,919.14667)" />
      <path
         id="path6"
         d="M 4827.35,1407.61 V 1283.58 H 4329.82 V 983.141 h 420.35 V 859.082 h -420.35 v -292.18 h 497.53 V 442.859 h -533.36 c -68.01,0 -101.98,33.981 -101.98,101.993 v 760.778 c 0,67.99 33.97,101.98 101.98,101.98 h 533.36"
         style="fill:#231f20;fill-opacity:1;fill-rule:nonzero;stroke:none"
         transform="matrix(0.13333333,0,0,-0.13333333,0,919.14667)" />
      <path
         id="path7"
         d="m 5054.75,926.629 c 0,-53.297 9.39,-103.379 28.24,-150.227 18.84,-46.851 44.32,-87.773 76.51,-122.672 32.14,-34.921 69.8,-62.488 113.01,-82.699 43.16,-20.222 89.11,-30.312 137.82,-30.312 49.61,0 96,10.09 139.21,30.312 43.16,20.211 80.82,47.778 113.01,82.699 32.14,34.899 57.64,75.821 76.48,122.672 18.82,46.848 28.27,96.93 28.27,150.227 0,53.262 -9.45,103.131 -28.27,149.541 -18.84,46.39 -44.34,87.04 -76.48,121.97 -32.19,34.9 -69.85,62.47 -113.01,82.68 -43.21,20.21 -89.6,30.33 -139.21,30.33 -48.71,0 -94.66,-10.12 -137.82,-30.33 -43.21,-20.21 -80.87,-47.78 -113.01,-82.68 -32.19,-34.93 -57.67,-75.58 -76.51,-121.97 -18.85,-46.41 -28.24,-96.279 -28.24,-149.541 z m -137.82,0 c 0,69.801 12.85,135.501 38.59,197.091 25.71,61.54 61.08,115.52 106.12,161.93 44.99,46.38 97.37,82.91 157.12,109.57 59.71,26.64 123.55,39.96 191.57,39.96 67.99,0 132.06,-13.32 192.26,-39.96 60.17,-26.66 112.77,-63.19 157.82,-109.57 44.99,-46.41 80.38,-100.39 106.12,-161.93 25.71,-61.59 38.59,-127.29 38.59,-197.091 0,-69.848 -12.88,-136.008 -38.59,-198.477 -25.74,-62.492 -61.13,-116.703 -106.12,-162.621 -45.05,-45.949 -97.65,-82.472 -157.82,-109.582 -60.2,-27.078 -124.27,-40.66 -192.26,-40.66 -68.02,0 -131.86,13.582 -191.57,40.66 -59.75,27.11 -112.13,63.633 -157.12,109.582 -45.04,45.918 -80.41,100.129 -106.12,162.621 -25.74,62.469 -38.59,128.629 -38.59,198.477"
         style="fill:#231f20;fill-opacity:1;fill-rule:nonzero;stroke:none"
         transform="matrix(0.13333333,0,0,-0.13333333,0,919.14667)" />
      <path
         id="path8"
         d="M 3667.28,5252.15 V 3852.26 c -74.62,-11.66 -152.32,-12.38 -231.22,-0.71 -5.94,0.95 -11.64,1.9 -17.58,2.85 v 1402.51 c 72.24,10.47 147.57,10.71 224.08,-0.48 8.32,-1.19 16.64,-2.62 24.72,-4.28"
         style="fill:#231f20;fill-opacity:1;fill-rule:nonzero;stroke:none"
         transform="matrix(0.13333333,0,0,-0.13333333,0,919.14667)" />
      <path
         id="path9"
         d="m 3053.09,4896.74 c -51.37,-64.11 -117.69,-102.99 -174.34,-108.33 -11.36,-12.35 -23.2,-23.55 -35.31,-33.44 -58.6,-48.42 -124.92,-68.41 -173.34,-51.15 -9.88,3.2 -18.87,8.19 -27.04,14.62 -55.04,44.05 -48.94,144.93 10.23,235.82 -13.12,57.84 9.78,137.39 64.98,206.44 69.87,87.35 167.42,128.23 230.7,100.54 7.41,-3.07 14.24,-7.28 20.55,-12.27 20.15,-16.11 31.84,-39.81 36.1,-67.74 29.82,3 57.11,-3.12 78.18,-19.95 2.75,-2.32 5.49,-4.65 7.97,-7.45 51.49,-52.08 35.54,-164.01 -38.68,-257.09"
         style="fill:#231f20;fill-opacity:1;fill-rule:nonzero;stroke:none"
         transform="matrix(0.13333333,0,0,-0.13333333,0,919.14667)" />
      <path
         id="path10"
         d="m 2712.85,4055.9 c 13.31,-19.96 27.33,-39.45 42.06,-58.46 -19.48,14.5 -34.21,34.93 -42.06,58.46"
         style="fill:#231f20;fill-opacity:1;fill-rule:nonzero;stroke:none"
         transform="matrix(0.13333333,0,0,-0.13333333,0,919.14667)" />
      <path
         id="path11"
         d="m 2885.1,4219.7 c -5.43,10.04 -10.87,20.07 -15.8,30.28 6.73,-9.24 12.14,-19.51 15.8,-30.28"
         style="fill:#231f20;fill-opacity:1;fill-rule:nonzero;stroke:none"
         transform="matrix(0.13333333,0,0,-0.13333333,0,919.14667)" />
      <path
         id="path12"
         d="m 5111.92,5630.65 -359.29,-355.73 c 396.6,-324.12 647.77,-805.08 647.77,-1341.87 0,-937.8 -766.83,-1704.92 -1735.94,-1764.12 v 449.98 c -39.69,-4.76 -80.32,-7.13 -121.43,-7.13 -41.11,0 -81.5,2.37 -121.19,7.13 v -449.9 c -968.47,59.83 -1734.58,826.68 -1734.58,1764.04 0,529.9 244.99,1005.39 632.8,1329.51 l -352.64,360.96 c -489.51,-413.95 -797.71,-1017.99 -797.71,-1690.47 0,-1248.73 1062.9,-2261.01 2374.12,-2261.01 1311.22,0 2374.36,1012.28 2374.36,2261.01 0,676.28 -312.01,1283.41 -806.27,1697.6"
         style="fill:#231f20;fill-opacity:1;fill-rule:nonzero;stroke:none"
         transform="matrix(0.13333333,0,0,-0.13333333,0,919.14667)" />
      <path
         id="path13"
         d="m 3665.26,3625.66 v -792.49 c -39.45,-6.24 -80.08,-9.6 -121.43,-9.6 -41.34,0 -81.74,3.12 -121.19,9.6 v 795.61 c 82.46,-11.05 163.72,-11.77 242.62,-3.12"
         style="fill:#231f20;fill-opacity:1;fill-rule:nonzero;stroke:none"
         transform="matrix(0.13333333,0,0,-0.13333333,0,919.14667)" />
      <path
         id="path14"
         d="m 3663.33,6406.85 c -41.12,-5.6 -83.2,-8.53 -125.75,-8.53 -40.16,0 -79.61,2.68 -118.34,7.56 -66.22,8.52 -130.29,23.87 -191.49,45.79 95.87,-72.35 165.44,-178.55 191.49,-301.32 7.65,-35.32 0,-671.09 0,-671.09 39.93,4.88 80.57,7.31 121.93,7.31 41.35,0 82.23,-2.43 122.16,-7.31 0,0 -3.83,618.48 0,643.81 20.56,136.65 94.19,255.52 199.14,333.96 -63.35,-23.87 -130.05,-40.92 -199.14,-50.18"
         style="fill:#231f20;fill-opacity:1;fill-rule:nonzero;stroke:none"
         transform="matrix(0.13333333,0,0,-0.13333333,0,919.14667)" />
      <path
         id="path15"
         d="m 4516.66,3532.35 c 0,-514.7 -438.42,-932.21 -979.02,-932.21 -540.59,0 -978.78,417.51 -978.78,932.21 0,189.15 59.17,364.99 160.88,512.08 45.62,-65.82 99.8,-125.94 160.87,-178.69 -55.61,-99.33 -87.21,-212.92 -87.21,-333.39 0,-391.37 333.39,-708.84 744.24,-708.84 411.1,0 744.25,317.47 744.25,708.84 0,120.47 -31.6,234.06 -87.21,333.39 61.31,52.75 115.25,112.87 160.87,178.69 101.95,-147.09 161.11,-322.93 161.11,-512.08"
         style="fill:#231f20;fill-opacity:1;fill-rule:nonzero;stroke:none"
         transform="matrix(0.13333333,0,0,-0.13333333,0,919.14667)" />
      <path
         id="path16"
         d="m 3677.91,5477.03 c -2.61,0.48 -4.99,0.72 -7.6,0.95 -84.36,11.89 -168,13.07 -248.8,4.52 -192.24,-19.96 -376.48,-98.32 -519.53,-213.09 10.22,-3.81 25.99,-5.05 35.01,-11.23 28.52,-20.67 45.87,-52.04 53.71,-89.58 40.16,5.94 77.7,-0.48 107.41,-21.87 3.8,-3.09 3.55,-7 7.12,-10.8 91.72,61.54 202.22,104.19 316.28,120.59 72.24,10.45 147.57,10.69 224.09,-0.48 8.31,-1.19 16.63,-2.61 24.71,-4.28 393.27,-70.33 664.16,-425.82 608.32,-805.31 -45.86,-312 -298.93,-544.88 -608.32,-591.93 -74.61,-11.64 -152.32,-12.35 -231.21,-0.71 -5.94,0.95 -11.65,1.9 -17.59,2.85 -241.66,41.11 -437.7,189.63 -541.78,385.19 2.08,-6.16 3.44,-12.61 4.43,-19.16 -16.11,46.84 -60.44,80.54 -112.75,80.54 -65.89,0 -119.32,-53.42 -119.32,-119.32 0,-28.73 10.17,-55.07 27.08,-75.66 141.61,-252.16 411.62,-429.08 727.37,-475.43 5.71,-0.71 11.41,-1.66 17.11,-2.14 82.46,-10.93 163.73,-11.64 242.62,-3.09 427.01,46.1 782.03,359.53 844.52,784.64 75.09,509.47 -297.98,986.15 -832.88,1064.8"
         style="fill:#231f20;fill-opacity:1;fill-rule:nonzero;stroke:none"
         transform="matrix(0.13333333,0,0,-0.13333333,0,919.14667)" />
    </g>
  </g>
</svg>
