<?xml version="1.0" encoding="UTF-8" standalone="no"?>
<!-- Created with Inkscape (http://www.inkscape.org/) -->

<svg
   version="1.1"
   id="svg1"
   width="951.82666"
   height="919.14667"
   viewBox="0 0 951.82666 919.14667"
   sodipodi:docname="clineo-logotipo icono-acromatico-blanco.pdf"
   xmlns:inkscape="http://www.inkscape.org/namespaces/inkscape"
   xmlns:sodipodi="http://sodipodi.sourceforge.net/DTD/sodipodi-0.dtd"
   xmlns="http://www.w3.org/2000/svg"
   xmlns:svg="http://www.w3.org/2000/svg">
  <defs
     id="defs1" />
  <sodipodi:namedview
     id="namedview1"
     pagecolor="#ffffff"
     bordercolor="#000000"
     borderopacity="0.25"
     inkscape:showpageshadow="2"
     inkscape:pageopacity="0.0"
     inkscape:pagecheckerboard="0"
     inkscape:deskcolor="#d1d1d1">
    <inkscape:page
       x="0"
       y="0"
       inkscape:label="1"
       id="page1"
       width="951.82666"
       height="919.14667"
       margin="0"
       bleed="0" />
  </sodipodi:namedview>
  <g
     id="g1"
     inkscape:groupmode="layer"
     inkscape:label="1">
    <g
       id="group-R5">
      <path
         id="path2"
         d="m 2610.18,3241.36 c 174.34,-149.05 394.35,-253.29 641.9,-289.55 7.17,-0.9 14.33,-2.09 21.49,-2.68 1.68,-0.23 3.35,-0.38 5.03,-0.6 V 1945.86 c 48.86,-8.12 98.89,-12.04 150.08,-12.12 l -2.3,-0.02 c -513.63,0 -930.42,396.88 -930.42,886.16 0,149.2 45.79,298 114.22,421.48 z m 971.73,-295.64 c 252.68,27.96 485.05,130.34 668.21,286.64 68.03,-123.16 106.69,-263.59 106.69,-412.48 0,-438.82 -335.04,-803.25 -774.9,-873.77 z M 3426.38,1654.47 c 675.84,0 1223.94,521.96 1223.94,1165.41 0,234.54 -72.84,452.66 -198.37,635.63 95.41,137.99 161.15,297.9 186.96,473.09 94.3,638.49 -374.24,1235.89 -1046.01,1334.46 -3.29,0.6 -6.27,0.9 -9.55,1.19 -1.12,0.16 -2.23,0.27 -3.35,0.42 0.02,24.56 0.74,776.79 5.44,808.02 13.2,87.61 37.98,167.8 88.06,253.72 41.75,71.63 90.13,126.98 125.31,158.52 -87.46,-47.03 -167.02,-63 -217.5,-71.13 -65.61,-10.56 -121.5,-13.42 -157.43,-12.23 -25.97,0.87 -81.13,4.69 -150.52,17.15 -84.3,15.13 -144.25,40.61 -216.76,74.91 105.12,-98.61 182.17,-236.83 214.75,-390.68 9.07,-41.97 4.09,-758.82 3.55,-832.67 -1.33,-0.14 -2.68,-0.23 -4.01,-0.37 -241.06,-24.97 -472.08,-122.92 -651.62,-266.39 -71.56,-5.27 -156.04,-54.37 -221.25,-135.89 -69.01,-86.32 -97.64,-185.78 -81.24,-258.08 -73.97,-113.63 -81.6,-239.74 -12.78,-294.82 10.21,-8.03 21.44,-14.27 33.79,-18.28 60.54,-21.58 143.45,3.42 216.71,63.95 15.14,12.37 29.95,26.36 44.15,41.81 70.81,6.68 153.73,55.28 217.95,135.43 84.49,105.96 108.34,231.27 63.36,302.02 113.95,74.9 250.25,126.86 390.93,147.04 l 2.51,0.32 V 3233 c 7.42,-1.19 14.55,-2.38 21.98,-3.57 98.63,-14.59 195.77,-13.7 289.05,0.89 v 1750.22 c 493.32,-88.61 832.99,-533.81 762.91,-1009.05 -57.6,-391.02 -375.43,-682.87 -763.99,-741.84 -93.71,-14.59 -191.3,-15.48 -290.38,-0.89 -7.46,1.19 -14.62,2.39 -22.08,3.58 -303.51,51.52 -549.72,237.64 -680.43,482.74 1.23,-3.65 2.11,-7.42 3.04,-11.18 -22.66,50.39 -72.46,85.46 -130.42,85.46 -79.26,0 -143.51,-65.47 -143.51,-146.24 0,-32.77 10.71,-62.93 28.58,-87.31 17.61,-30.53 36.62,-60.29 56.94,-89.21 -124.58,-182.87 -202.34,-412.99 -202.34,-646.72 0,-643.45 547.8,-1165.41 1223.63,-1165.41"
         style="fill:#ffffff;fill-opacity:1;fill-rule:nonzero;stroke:none"
         transform="matrix(0.13333333,0,0,-0.13333333,0,919.14667)" />
      <path
         id="path3"
         d="m 5398.51,5427.04 -449.18,-444.72 c 495.82,-405.2 809.82,-1006.47 809.82,-1677.55 0,-1175 -962.9,-2135.68 -2178.24,-2205.93 v 564.06 c -49.61,-5.85 -100.41,-8.78 -151.81,-8.78 -51.39,0 -101.89,2.93 -151.5,8.78 v -562.99 c -1206.96,78.54 -2160.49,1035.59 -2160.49,2204.86 0,662.47 306.28,1256.9 791.1,1662.11 l -440.85,451.25 C 855.395,4900.63 470.094,4145.48 470.094,3304.77 470.094,1743.65 1798.89,478.129 3438.13,478.129 c 1639.24,0 2968.34,1265.521 2968.34,2826.641 0,845.46 -390.06,1604.48 -1007.96,2122.27"
         style="fill:#ffffff;fill-opacity:1;fill-rule:nonzero;stroke:none"
         transform="matrix(0.13333333,0,0,-0.13333333,0,919.14667)" />
    </g>
  </g>
</svg>
